<svg width="97" height="126" viewBox="0 0 97 126" fill="none" xmlns="http://www.w3.org/2000/svg">
<g clip-path="url(#clip0_1_68)">
<rect width="97" height="126" fill="white"/>
<g clip-path="url(#clip1_1_68)">
<mask id="mask0_1_68" style="mask-type:alpha" maskUnits="userSpaceOnUse" x="0" y="0" width="97" height="126">
<path d="M97 0H0V126H97V0Z" fill="white"/>
</mask>
<g mask="url(#mask0_1_68)">
<path d="M97 0H0V126H97V0Z" fill="white"/>
<path d="M18.3966 0H-21.7414V126H18.3966V0Z" fill="#662D91"/>
<path fill-rule="evenodd" clip-rule="evenodd" d="M12.5431 -20.8611V145.024L13.183 145.679L94.1784 62.7362L12.5431 -20.8611Z" fill="#662D91"/>
<mask id="mask1_1_68" style="mask-type:alpha" maskUnits="userSpaceOnUse" x="18" y="41" width="42" height="43">
<path d="M18.3499 41.51H59.7157V83.8704H18.3499V41.51Z" fill="white"/>
</mask>
<g mask="url(#mask1_1_68)">
<path fill-rule="evenodd" clip-rule="evenodd" d="M52.9349 69.6827L59.6819 62.774C59.7268 62.7275 59.7268 62.6531 59.6819 62.6061L52.8534 55.6134L45.9429 48.5369L39.1143 41.5442C39.0689 41.4987 38.9962 41.4987 38.9509 41.5442L32.2038 48.4539C32.1589 48.4999 32.1589 48.5748 32.2038 48.6208L38.9509 55.53C38.9962 55.576 38.9962 55.6509 38.9509 55.6969L32.2038 62.6061C32.1589 62.6531 32.0857 62.6531 32.0408 62.6061L25.2937 55.6969C25.2484 55.6509 25.1752 55.6509 25.1303 55.6969L18.3832 62.6061C18.3383 62.6531 18.3383 62.7275 18.3832 62.774L25.2118 69.7666L32.1223 76.8432L38.9509 83.8359C38.9962 83.8819 39.0689 83.8819 39.1143 83.8359L45.8614 76.9262C45.9063 76.8807 45.9063 76.8053 45.8614 76.7598L39.1143 69.8501C39.0694 69.8041 39.0694 69.7292 39.1143 69.6827L45.8614 62.774C45.9063 62.7275 45.9794 62.7275 46.0243 62.774L52.7719 69.6827C52.8168 69.7292 52.8899 69.7292 52.9349 69.6827Z" fill="white"/>
</g>
<path fill-rule="evenodd" clip-rule="evenodd" d="M61.664 49.4218C58.9926 52.1575 54.6609 52.1575 51.9895 49.4218C49.3181 46.6862 49.3181 42.2504 51.9895 39.5148C54.6609 36.7792 58.9926 36.7792 61.664 39.5148C64.3354 42.2504 64.3354 46.6862 61.664 49.4218Z" fill="white"/>
<path fill-rule="evenodd" clip-rule="evenodd" d="M41.7478 86.6563C41.7089 86.6165 41.7089 86.5762 41.7478 86.5364L42.6617 85.6C42.7006 85.5602 42.7395 85.5602 42.7788 85.6L44.1905 87.0465C44.2141 87.0702 44.2372 87.0702 44.2608 87.0465L45.4924 85.7854C45.5155 85.7612 45.5155 85.737 45.4924 85.7133L44.0807 84.2673C44.0414 84.2274 44.0414 84.1876 44.0807 84.1473L44.9947 83.2119C45.0336 83.1716 45.0724 83.1716 45.1118 83.2119L48.9777 87.1707C49.0171 87.211 49.0171 87.2509 48.9777 87.2907L48.0643 88.2266C48.0249 88.2664 47.986 88.2664 47.9471 88.2271L46.4767 86.7208C46.4531 86.6971 46.4295 86.6971 46.4063 86.7208L45.1748 87.9819C45.1512 88.0061 45.1512 88.0298 45.1748 88.054L46.6452 89.5598C46.6841 89.5996 46.6841 89.6399 46.6452 89.6797L45.7313 90.6156C45.6924 90.6554 45.653 90.6554 45.6141 90.6156L41.7478 86.6563Z" fill="white"/>
<path fill-rule="evenodd" clip-rule="evenodd" d="M51.6436 84.7316C51.4015 84.9796 51.1487 85.1687 50.8848 85.2986C50.6213 85.429 50.3528 85.4954 50.0796 85.4997C49.806 85.5035 49.5319 85.4409 49.2564 85.311C48.981 85.1806 48.7106 84.98 48.4453 84.7079L46.0609 82.2667C46.0216 82.2264 46.0216 82.1861 46.0609 82.1463L46.9749 81.2104C47.0137 81.1705 47.0531 81.1705 47.092 81.2104L49.5407 83.718C49.7398 83.9218 49.9449 84.0285 50.1556 84.0356C50.3667 84.0441 50.5556 83.9616 50.7241 83.7905C50.8996 83.6103 50.9806 83.4155 50.9672 83.205C50.9533 82.9949 50.8468 82.7882 50.6477 82.5848L48.199 80.0772C48.1601 80.0374 48.1601 79.9971 48.199 79.9573L49.1129 79.0209C49.1518 78.9811 49.1912 78.9806 49.2301 79.0209L51.6144 81.4621C51.8802 81.7347 52.0751 82.0126 52.2001 82.2961C52.3251 82.5801 52.3853 82.8627 52.3821 83.1419C52.3779 83.4221 52.3135 83.6961 52.1885 83.9635C52.0635 84.2319 51.8816 84.4879 51.6436 84.7316Z" fill="white"/>
<path fill-rule="evenodd" clip-rule="evenodd" d="M50.2108 77.9899C50.1719 77.9501 50.1719 77.9098 50.2108 77.8699L51.0775 76.9819C51.1284 76.9307 51.1812 76.916 51.2358 76.9402L54.2351 78.1279L54.2587 78.1037L53.0753 75.0566C53.0521 75.0006 53.0656 74.9466 53.1165 74.8954L53.9716 74.0187C54.0105 73.9789 54.0494 73.9789 54.0888 74.0187L57.9551 77.9785C57.994 78.0183 57.994 78.0586 57.9551 78.0985L57.1407 78.9315C57.1014 78.9718 57.0625 78.9718 57.0241 78.9315L54.9735 76.8326L54.9439 76.862L55.7935 79.0396C55.8092 79.0879 55.812 79.1268 55.8023 79.1567C55.7925 79.187 55.7777 79.2117 55.7583 79.2316L55.3013 79.6995C55.2583 79.7436 55.1958 79.756 55.1138 79.736L52.9873 78.866L52.9581 78.8959L55.0087 80.9953C55.0476 81.0351 55.0476 81.0754 55.0087 81.1152L54.1943 81.9497C54.1554 81.9895 54.1161 81.9895 54.0772 81.9497L50.2108 77.9899Z" fill="white"/>
<path fill-rule="evenodd" clip-rule="evenodd" d="M59.4097 73.477L57.7985 72.5833L57.7809 72.6009L58.6365 74.2688L59.4097 73.477ZM56.0882 71.9712C56.0609 71.9196 56.0669 71.8731 56.1058 71.8333L57.0605 70.8561C57.0994 70.8163 57.1448 70.8097 57.1952 70.8381L62.4089 73.4168C62.4598 73.4452 62.4654 73.4789 62.4265 73.5187L61.4598 74.5092C61.4209 74.549 61.376 74.5547 61.3255 74.5267L60.5227 74.0886L59.2282 75.4142L59.6555 76.2363C59.6833 76.289 59.6773 76.3345 59.638 76.3743L58.6773 77.3586C58.6384 77.3984 58.605 77.3922 58.5782 77.3401L56.0882 71.9712Z" fill="white"/>
<path fill-rule="evenodd" clip-rule="evenodd" d="M59.2485 68.735C59.2096 68.6951 59.2096 68.6548 59.2485 68.615L60.1096 67.7332C60.1606 67.6815 60.2129 67.6673 60.268 67.691L63.7501 68.744L63.7737 68.7203L61.5185 66.4104C61.4796 66.3706 61.4796 66.3307 61.5185 66.2904L62.3384 65.4508C62.3773 65.411 62.4167 65.411 62.4556 65.4508L66.322 69.4101C66.3609 69.4499 66.3609 69.4902 66.322 69.5301L65.4608 70.4114C65.4099 70.4636 65.3576 70.4778 65.3029 70.4536L61.838 69.3949L61.8028 69.431L64.052 71.7342C64.0913 71.7745 64.0908 71.8143 64.052 71.8542L63.232 72.6943C63.1931 72.7341 63.1538 72.7341 63.1149 72.6943L59.2485 68.735Z" fill="white"/>
<mask id="mask2_1_68" style="mask-type:alpha" maskUnits="userSpaceOnUse" x="48" y="90" width="7" height="7">
<path d="M48.6047 90.4927H54.8217V96.8881H48.6047V90.4927Z" fill="white"/>
</mask>
<g mask="url(#mask2_1_68)">
<path fill-rule="evenodd" clip-rule="evenodd" d="M51.8574 93.0813L50.2879 92.2104L50.2708 92.2279L51.1042 93.8527L51.8574 93.0813ZM48.6212 91.6144C48.5943 91.5637 48.6003 91.5187 48.6383 91.4798L49.5685 90.5273C49.6064 90.488 49.6504 90.4823 49.6999 90.5098L54.7798 93.023C54.8293 93.0501 54.8349 93.0832 54.7969 93.1221L53.8552 94.0869C53.8168 94.1258 53.7733 94.1315 53.7237 94.104L52.9418 93.6773L51.6806 94.9688L52.0973 95.77C52.1237 95.8208 52.1181 95.8658 52.0801 95.9047L51.144 96.8629C51.106 96.9022 51.0736 96.896 51.0472 96.8453L48.6212 91.6144Z" fill="white"/>
</g>
<path fill-rule="evenodd" clip-rule="evenodd" d="M55.1029 88.1842C55.1047 88.0149 55.039 87.8618 54.9061 87.7257C54.7728 87.5892 54.6246 87.5228 54.4607 87.5266C54.2973 87.5304 54.1357 87.6143 53.9755 87.7779L53.4621 88.3041C53.4394 88.3274 53.4394 88.3511 53.4621 88.3743L54.2783 89.2102C54.301 89.2334 54.3237 89.2334 54.3464 89.2102L54.8603 88.6839C55.02 88.5203 55.101 88.3539 55.1029 88.1842ZM55.5112 92.4133C55.4728 92.4521 55.4348 92.4521 55.3969 92.4133L51.6296 88.5554C51.5916 88.5165 51.5916 88.4777 51.63 88.4383L53.1824 86.8486C53.4181 86.6073 53.6588 86.4267 53.9042 86.3081C54.1496 86.1891 54.3894 86.127 54.6232 86.1209C54.8575 86.1152 55.0839 86.1621 55.3029 86.2612C55.5214 86.3608 55.7242 86.5058 55.9108 86.6969C56.0969 86.8875 56.2386 87.0952 56.3358 87.3189C56.433 87.5432 56.4784 87.7769 56.4728 88.0206C56.4673 88.2643 56.4071 88.5109 56.2932 88.7598C56.1789 89.0096 56.0038 89.2547 55.7677 89.4965L55.1969 90.0811C55.1742 90.1043 55.1742 90.1276 55.1969 90.1508L56.4015 91.3844C56.4395 91.4233 56.4395 91.4627 56.4015 91.5011L55.5112 92.4133Z" fill="white"/>
<path fill-rule="evenodd" clip-rule="evenodd" d="M58.7914 84.3848C58.7932 84.216 58.7275 84.0624 58.5946 83.9263C58.4613 83.7898 58.3131 83.7234 58.1492 83.7272C57.9858 83.731 57.8237 83.8149 57.664 83.979L57.1506 84.5048C57.1279 84.5285 57.1279 84.5522 57.1506 84.5749L57.9668 85.4108C57.9895 85.434 58.0122 85.434 58.0349 85.4108L58.5488 84.885C58.7085 84.721 58.7895 84.5545 58.7914 84.3848ZM59.1997 88.6139C59.1613 88.6528 59.1233 88.6528 59.0854 88.6139L55.3181 84.756C55.2801 84.7172 55.2801 84.6783 55.3185 84.6389L56.8709 83.0497C57.1066 82.8079 57.3473 82.6277 57.5927 82.5087C57.8381 82.3902 58.0779 82.3276 58.3117 82.3215C58.546 82.3163 58.7724 82.3627 58.9914 82.4618C59.2099 82.5614 59.4127 82.7064 59.5993 82.8975C59.7854 83.0886 59.9271 83.2958 60.0243 83.5196C60.1215 83.7438 60.1669 83.978 60.1614 84.2212C60.1558 84.4649 60.0956 84.7115 59.9813 84.9609C59.8674 85.2102 59.6923 85.4554 59.4562 85.6976L58.8854 86.2817C58.8627 86.305 58.8627 86.3287 58.8854 86.3514L60.0901 87.5851C60.128 87.6239 60.128 87.6633 60.0901 87.7017L59.1997 88.6139Z" fill="white"/>
<path fill-rule="evenodd" clip-rule="evenodd" d="M58.9596 81.0271C58.9216 80.9882 58.9216 80.9494 58.9596 80.91L61.3495 78.4631C61.3875 78.4247 61.4254 78.4247 61.4639 78.4631L62.2 79.2174C62.238 79.2563 62.238 79.2957 62.2 79.3345L60.7921 80.7763C60.7689 80.7996 60.7689 80.8228 60.7916 80.846L61.3796 81.4486C61.4023 81.4714 61.4254 81.4714 61.4481 81.4486L62.5764 80.2927C62.6148 80.2539 62.6528 80.2539 62.6908 80.2927L63.4098 81.029C63.4478 81.0679 63.4478 81.1073 63.4098 81.1457L62.2815 82.3015C62.2588 82.3248 62.2588 82.348 62.2815 82.3717L62.9037 83.0094C62.9264 83.0321 62.9491 83.0321 62.9723 83.0089L64.3802 81.5671C64.4182 81.5283 64.4566 81.5283 64.4946 81.5671L65.2307 82.321C65.2687 82.3599 65.2687 82.3992 65.2307 82.4381L62.8408 84.885C62.8028 84.9243 62.7649 84.9243 62.7269 84.885L58.9596 81.0271Z" fill="white"/>
<path fill-rule="evenodd" clip-rule="evenodd" d="M66.5704 78.0149L65.0008 77.1439L64.9837 77.1615L65.8171 78.7863L66.5704 78.0149ZM63.3341 76.548C63.3072 76.4973 63.3133 76.4522 63.3512 76.4133L64.2814 75.4608C64.3193 75.4215 64.3633 75.4158 64.4128 75.4428L69.4927 77.9566C69.5423 77.9836 69.5478 78.0168 69.5098 78.0557L68.5681 79.0205C68.5302 79.0594 68.4862 79.065 68.4371 79.0375L67.6547 78.6108L66.3935 79.9023L66.8102 80.7036C66.8366 80.7538 66.831 80.7989 66.7931 80.8377L65.8569 81.7964C65.8189 81.8353 65.7865 81.8296 65.7601 81.7784L63.3341 76.548Z" fill="white"/>
<path fill-rule="evenodd" clip-rule="evenodd" d="M66.3183 73.4919C66.2803 73.453 66.2803 73.4141 66.3183 73.3747L67.209 72.463C67.2465 72.4241 67.285 72.4241 67.3229 72.463L70.2226 75.4324C70.2453 75.4556 70.268 75.4556 70.2911 75.4324L71.6343 74.056C71.6722 74.0176 71.7106 74.0176 71.7486 74.056L72.525 74.8516C72.563 74.8905 72.563 74.9294 72.525 74.9678L70.1995 77.3492C70.1615 77.3886 70.1235 77.3886 70.0851 77.3497L66.3183 73.4919Z" fill="white"/>
</g>
</g>
</g>
<defs>
<clipPath id="clip0_1_68">
<rect width="97" height="126" fill="white"/>
</clipPath>
<clipPath id="clip1_1_68">
<rect width="97" height="126" fill="white"/>
</clipPath>
</defs>
</svg>
